<svg xmlns="http://www.w3.org/2000/svg" xmlns:xlink="http://www.w3.org/1999/xlink" width="1169" height="826.7" viewBox="-10 -10.1 1169 826.7"><title></title><style type="text/css">
#g1 circle.pindot {fill: none;stroke: none;pointer-events: fill;}#g1 rect, #g1 circle, #g1 ellipse, #g1 polyline, #g1 line, #g1 polygon, #g1 path {shape-rendering: crispEdges;}path, polyline, polygon {stroke-linejoin:round;}
rect, circle, ellipse, polyline, line, polygon, path {shape-rendering:crispEdges;}
</style>
<rect x="-10" y="-10.1" width="1169" height="826.7" fill="#FFFFFF" stroke="none"/><g id="g1" c_spiceCmd="null" c_para="Prefix Start`1`" importFlag="0" c_portOfADImportHack="" c_transformList="" xmlns="http://www.w3.org/2000/svg"><g c_origin="550,401" c_para="package`NONE`BOM_Manufacturer Part`?`spicePre`.`" c_partid="part_import_frame_lib" id="frame_lib_1" c_shapetype="group" c_etype="pinpart" ><g c_partid="part_annotation" id="gge92" display="none"><text c_note="note_name" x="572.640625" y="-3" fill="#000080" font-family="Arial" font-size="7pt" font-weight="" font-style="" dominant-baseline="" text-anchor="start"  >NO</text></g><g c_partid="part_annotation" id="gge94" display="none"><text c_note="note_pre" x="572.6484375" y="-13.703125" fill="#000080" font-family="Arial" font-size="7pt" font-weight="" font-style="" dominant-baseline="" text-anchor="start"  >.</text></g><path d="M 206 10 L 206 0 M 206 796 L 206 806 M 402 10 L 402 0 M 402 796 L 402 806 M 598 10 L 598 0 M 598 796 L 598 806 M 794 10 L 794 0 M 794 796 L 794 806 M 990 10 L 990 0 M 990 796 L 990 806 M 10 206 L 0 206 M 1139 206 L 1149 206 M 10 402 L 0 402 M 1139 402 L 1149 402 M 10 598 L 0 598 M 1139 598 L 1149 598 M 10 794 L 0 794 M 1139 794 L 1149 794" id="frame_tick_1"  stroke="#880000" stroke-width="1"  fill="none" /><g c_partid="part_annotation" id="frame_tick_2" c_origin="1.5,108" c_shapetype="group" c_etype="pinpart"><text x="1.5" y="108" fill="#880000" font-family="Verdana" font-size="7pt" font-weight="" font-style="" dominant-baseline="" text-anchor="start" type="comment"  >A</text></g><g c_partid="part_annotation" id="frame_tick_3" c_origin="1140.5,108" c_shapetype="group" c_etype="pinpart"><text x="1140.5" y="108" fill="#880000" font-family="Verdana" font-size="7pt" font-weight="" font-style="" dominant-baseline="" text-anchor="start" type="comment"  >A</text></g><g c_partid="part_annotation" id="frame_tick_4" c_origin="1.5,304" c_shapetype="group" c_etype="pinpart"><text x="1.5" y="304" fill="#880000" font-family="Verdana" font-size="7pt" font-weight="" font-style="" dominant-baseline="" text-anchor="start" type="comment"  >B</text></g><g c_partid="part_annotation" id="frame_tick_5" c_origin="1140.5,304" c_shapetype="group" c_etype="pinpart"><text x="1140.5" y="304" fill="#880000" font-family="Verdana" font-size="7pt" font-weight="" font-style="" dominant-baseline="" text-anchor="start" type="comment"  >B</text></g><g c_partid="part_annotation" id="frame_tick_6" c_origin="1.5,500" c_shapetype="group" c_etype="pinpart"><text x="1.5" y="500" fill="#880000" font-family="Verdana" font-size="7pt" font-weight="" font-style="" dominant-baseline="" text-anchor="start" type="comment"  >C</text></g><g c_partid="part_annotation" id="frame_tick_7" c_origin="1140.5,500" c_shapetype="group" c_etype="pinpart"><text x="1140.5" y="500" fill="#880000" font-family="Verdana" font-size="7pt" font-weight="" font-style="" dominant-baseline="" text-anchor="start" type="comment"  >C</text></g><g c_partid="part_annotation" id="frame_tick_8" c_origin="1.5,696" c_shapetype="group" c_etype="pinpart"><text x="1.5" y="696" fill="#880000" font-family="Verdana" font-size="7pt" font-weight="" font-style="" dominant-baseline="" text-anchor="start" type="comment"  >D</text></g><g c_partid="part_annotation" id="frame_tick_9" c_origin="1140.5,696" c_shapetype="group" c_etype="pinpart"><text x="1140.5" y="696" fill="#880000" font-family="Verdana" font-size="7pt" font-weight="" font-style="" dominant-baseline="" text-anchor="start" type="comment"  >D</text></g><g c_partid="part_annotation" id="frame_tick_10" c_origin="108,8.5" c_shapetype="group" c_etype="pinpart"><text x="108" y="8.5" fill="#880000" font-family="Verdana" font-size="7pt" font-weight="" font-style="" dominant-baseline="" text-anchor="start" type="comment"  >1</text></g><g c_partid="part_annotation" id="frame_tick_11" c_origin="108,804.5" c_shapetype="group" c_etype="pinpart"><text x="108" y="804.5" fill="#880000" font-family="Verdana" font-size="7pt" font-weight="" font-style="" dominant-baseline="" text-anchor="start" type="comment"  >1</text></g><g c_partid="part_annotation" id="frame_tick_12" c_origin="304,8.5" c_shapetype="group" c_etype="pinpart"><text x="304" y="8.5" fill="#880000" font-family="Verdana" font-size="7pt" font-weight="" font-style="" dominant-baseline="" text-anchor="start" type="comment"  >2</text></g><g c_partid="part_annotation" id="frame_tick_13" c_origin="304,804.5" c_shapetype="group" c_etype="pinpart"><text x="304" y="804.5" fill="#880000" font-family="Verdana" font-size="7pt" font-weight="" font-style="" dominant-baseline="" text-anchor="start" type="comment"  >2</text></g><g c_partid="part_annotation" id="frame_tick_14" c_origin="500,8.5" c_shapetype="group" c_etype="pinpart"><text x="500" y="8.5" fill="#880000" font-family="Verdana" font-size="7pt" font-weight="" font-style="" dominant-baseline="" text-anchor="start" type="comment"  >3</text></g><g c_partid="part_annotation" id="frame_tick_15" c_origin="500,804.5" c_shapetype="group" c_etype="pinpart"><text x="500" y="804.5" fill="#880000" font-family="Verdana" font-size="7pt" font-weight="" font-style="" dominant-baseline="" text-anchor="start" type="comment"  >3</text></g><g c_partid="part_annotation" id="frame_tick_16" c_origin="696,8.5" c_shapetype="group" c_etype="pinpart"><text x="696" y="8.5" fill="#880000" font-family="Verdana" font-size="7pt" font-weight="" font-style="" dominant-baseline="" text-anchor="start" type="comment"  >4</text></g><g c_partid="part_annotation" id="frame_tick_17" c_origin="696,804.5" c_shapetype="group" c_etype="pinpart"><text x="696" y="804.5" fill="#880000" font-family="Verdana" font-size="7pt" font-weight="" font-style="" dominant-baseline="" text-anchor="start" type="comment"  >4</text></g><g c_partid="part_annotation" id="frame_tick_18" c_origin="892,8.5" c_shapetype="group" c_etype="pinpart"><text x="892" y="8.5" fill="#880000" font-family="Verdana" font-size="7pt" font-weight="" font-style="" dominant-baseline="" text-anchor="start" type="comment"  >5</text></g><g c_partid="part_annotation" id="frame_tick_19" c_origin="892,804.5" c_shapetype="group" c_etype="pinpart"><text x="892" y="804.5" fill="#880000" font-family="Verdana" font-size="7pt" font-weight="" font-style="" dominant-baseline="" text-anchor="start" type="comment"  >5</text></g><rect id="frame_innerbox_1" x="10" y="10"   width="1129" height="786" stroke="#880000" stroke-width="1" fill="none"   /><rect id="frame_outbox_1" x="0" y="0"   width="1149" height="806" stroke="#880000" stroke-width="1" fill="none"   /><rect id="frame_hitarea_1" x="739" y="716"   width="400" height="80" stroke="#880000" stroke-width="1" fill="none"   /><polyline points="739 756 1139 756" stroke="#880000" id="gge150" stroke-width="1"   fill="none" stroke-linecap="round" /><polyline points="739 776 1139 776" stroke="#880000" id="gge151" stroke-width="1"   fill="none" stroke-linecap="round" /><polyline points="1059 716 1059 756" stroke="#880000" id="gge152" stroke-width="1"   fill="none" stroke-linecap="round" /><polyline points="1019 756 1019 776" stroke="#880000" id="gge153" stroke-width="1"   fill="none" stroke-linecap="round" /><polyline points="934 776 934 796" stroke="#880000" id="gge154" stroke-width="1"   fill="none" stroke-linecap="round" /><g c_partid="part_annotation" id="gge155" c_origin="744,728" c_shapetype="group" c_etype="pinpart"><text x="744" y="728" fill="#880000" font-family="Verdana" font-size="8pt" font-weight="" font-style="" dominant-baseline="" text-anchor="start" type="comment"  >TITLE:</text></g><g c_partid="part_annotation" id="frame_title_1" c_origin="749,746" c_shapetype="group" c_etype="pinpart"><text x="749" y="746" fill="#0000FF" font-family="Verdana" font-size="10pt" font-weight="" font-style="" dominant-baseline="" text-anchor="start" type="comment"  >New Schematic</text></g><g c_partid="part_annotation" id="gge158" c_origin="1065,742" c_shapetype="group" c_etype="pinpart"><text x="1065" y="742" fill="#880000" font-family="Verdana" font-size="8pt" font-weight="" font-style="" dominant-baseline="" text-anchor="start" type="comment"  >REV:</text></g><g c_partid="part_annotation" id="frame_version_1" c_origin="1096,743" c_shapetype="group" c_etype="pinpart"><text x="1096" y="743" fill="#0000FF" font-family="Verdana" font-size="9pt" font-weight="" font-style="" dominant-baseline="" text-anchor="start" type="comment"  >1.0</text></g><g c_partid="part_annotation" id="gge161" c_origin="744,771" c_shapetype="group" c_etype="pinpart"><text x="744" y="771" fill="#880000" font-family="Verdana" font-size="8pt" font-weight="" font-style="" dominant-baseline="" text-anchor="start" type="comment"  >Date:</text></g><g c_partid="part_annotation" id="frame_date_1" c_origin="794,771" c_shapetype="group" c_etype="pinpart"><text x="794" y="771" fill="#0000FF" font-family="Verdana" font-size="9pt" font-weight="" font-style="" dominant-baseline="" text-anchor="start" type="comment"  >2018-12-09</text></g><g c_partid="part_annotation" id="gge164" c_origin="1024,771" c_shapetype="group" c_etype="pinpart"><text x="1024" y="771" fill="#880000" font-family="Verdana" font-size="8pt" font-weight="" font-style="" dominant-baseline="" text-anchor="start" type="comment"  >Sheet:</text></g><g c_partid="part_annotation" id="frame_sheet_1" c_origin="1069,771" c_shapetype="group" c_etype="pinpart"><text x="1069" y="771" fill="#0000FF" font-family="Verdana" font-size="9pt" font-weight="" font-style="" dominant-baseline="" text-anchor="start" type="comment"  >1/1</text></g><g c_partid="part_annotation" id="frame_product_1" c_origin="744,791" c_shapetype="group" c_etype="pinpart"><text x="744" y="791" fill="#880000" font-family="Verdana" font-size="8pt" font-weight="" font-style="" dominant-baseline="" text-anchor="start" type="comment"  >EasyEDA V5.8.22</text></g><g c_partid="part_annotation" id="gge168" c_origin="944,791" c_shapetype="group" c_etype="pinpart"><text x="944" y="791" fill="#880000" font-family="Verdana" font-size="8pt" font-weight="" font-style="" dominant-baseline="" text-anchor="start" type="comment"  >Drawn By:</text></g><g c_partid="part_annotation" id="frame_drawn_1" c_origin="1009,791" c_shapetype="group" c_etype="pinpart"><text x="1009" y="791" fill="#0000FF" font-family="Verdana" font-size="9pt" font-weight="" font-style="" dominant-baseline="" text-anchor="start" type="comment"  >Your Name</text></g></g><g c_partid="part_netLabel_VCC" c_etype="pinpart" c_origin="375,420" id="gge171" c_shapetype="group" c_rotation="0"><circle c_pindot="true" class="pindot" cx="375" cy="420" r="2" fill="#4F4F4F" stroke="none" /><text x="363" y="408" font-family="Times New Roman" font-size="9pt" fill="#000000" text-anchor="start"  >5v</text><polyline points="375 410 375 420" stroke="#000000" id="gge174" stroke-width="1"   fill="none" stroke-linecap="round" /><polyline points="370 410 380 410" stroke="#000000" id="gge175" stroke-width="1"   fill="none" stroke-linecap="round" /></g><g c_partid="part_netLabel_gnD" c_etype="pinpart" c_origin="330,545" id="gge181" c_shapetype="group" c_rotation="0"><circle c_pindot="true" class="pindot" cx="330" cy="545" r="2" fill="#4F4F4F" stroke="none" /><text x="317" y="571" font-family="Times New Roman" font-size="9pt" fill="#000000" text-anchor="start"  display="none">GND</text><polyline points="330 555 330 545" stroke="#000000" id="gge184" stroke-width="1"   fill="none" stroke-linecap="round" /><polyline points="321 555 339 555" stroke="#000000" id="gge185" stroke-width="1"   fill="none" stroke-linecap="round" /><polyline points="324 557 336 557" stroke="#000000" id="gge186" stroke-width="1"   fill="none" stroke-linecap="round" /><polyline points="327 559 333 559" stroke="#000000" id="gge187" stroke-width="1"   fill="none" stroke-linecap="round" /><polyline points="329 561 331 561" stroke="#000000" id="gge188" stroke-width="1"   fill="none" stroke-linecap="round" /></g><g c_partid="part_netLabel_VCC" c_etype="pinpart" c_origin="225,455" id="gge197" c_shapetype="group" c_rotation="0"><circle c_pindot="true" class="pindot" cx="225" cy="455" r="2" fill="#4F4F4F" stroke="none" /><text x="213" y="443" font-family="Times New Roman" font-size="9pt" fill="#000000" text-anchor="start"  >3.3v</text><polyline points="225 445 225 455" stroke="#000000" id="gge200" stroke-width="1"   fill="none" stroke-linecap="round" /><polyline points="220 445 230 445" stroke="#000000" id="gge201" stroke-width="1"   fill="none" stroke-linecap="round" /></g><g c_origin="435,345" c_para="package`MQ-135`BOM_Manufacturer``BOM_Manufacturer Part`?`BOM_Supplier Part`undefined`BOM_Supplier``link``Contributor`tunx404`spicePre`U`" c_partid="part_import_gge11288" id="gge11288" c_shapetype="group" c_etype="pinpart" ><g c_partid="part_annotation" id="gge11290" ><text c_note="note_name" x="454.03125" y="292" fill="#000080" font-family="Arial" font-size="7pt" font-weight="" font-style="" dominant-baseline="" text-anchor="start"  >MQ-135</text></g><g c_partid="part_annotation" id="gge11292" ><text c_note="note_pre" x="454.0390625" y="283" fill="#000080" font-family="Arial" font-size="7pt" font-weight="" font-style="" dominant-baseline="" text-anchor="start"  >U1</text></g><ellipse cx="460" cy="320" rx="25" ry="25" id="gge11294" stroke="#000000" stroke-width="1" fill="none"   /><g c_partid="part_pin" c_etype="pinpart"  c_show="show"  c_elec="0" c_spicepin="1" c_origin="420,305" id="gge11295" c_rotation="180"><circle c_pindot="true" class="pindot" cx="420" cy="305" r="2" fill="#4F4F4F" stroke="none" /><path d="M 420 305 h 20" fill="none" stroke="#880000" stroke-width="1"/><text x="447" y="308" font-family="Verdana" font-size="7pt" fill="#0000FF" text-anchor="start"   >A</text><text x="435" y="304" font-family="Verdana" font-size="7pt" fill="#0000FF" text-anchor="end"   >1</text><circle cx="437" cy="305" r="3" stroke="#880000" fill="none" stroke-width="1" display="none" /><path d="M 440 308 L 443 305 L 440 302" fill="none" stroke="#880000" stroke-width="1"  display="none" /></g><g c_partid="part_pin" c_etype="pinpart"  c_show="show"  c_elec="0" c_spicepin="2" c_origin="415,320" id="gge11302" c_rotation="180"><circle c_pindot="true" class="pindot" cx="415" cy="320" r="2" fill="#4F4F4F" stroke="none" /><path d="M 415 320 h 20" fill="none" stroke="#880000" stroke-width="1"/><text x="437" y="323" font-family="Verdana" font-size="7pt" fill="#0000FF" text-anchor="start"   >H+</text><text x="430" y="319" font-family="Verdana" font-size="7pt" fill="#0000FF" text-anchor="end"   >2</text><circle cx="432" cy="320" r="3" stroke="#880000" fill="none" stroke-width="1" display="none" /><path d="M 435 323 L 438 320 L 435 317" fill="none" stroke="#880000" stroke-width="1"  display="none" /></g><g c_partid="part_pin" c_etype="pinpart"  c_show="show"  c_elec="0" c_spicepin="3" c_origin="420,335" id="gge11309" c_rotation="180"><circle c_pindot="true" class="pindot" cx="420" cy="335" r="2" fill="#4F4F4F" stroke="none" /><path d="M 420 335 h 20" fill="none" stroke="#880000" stroke-width="1"/><text x="447" y="338" font-family="Verdana" font-size="7pt" fill="#0000FF" text-anchor="start"   >A</text><text x="435" y="334" font-family="Verdana" font-size="7pt" fill="#0000FF" text-anchor="end"   >3</text><circle cx="437" cy="335" r="3" stroke="#880000" fill="none" stroke-width="1" display="none" /><path d="M 440 338 L 443 335 L 440 332" fill="none" stroke="#880000" stroke-width="1"  display="none" /></g><g c_partid="part_pin" c_etype="pinpart"  c_show="show"  c_elec="0" c_spicepin="4" c_origin="500,335" id="gge11316" c_rotation="0"><circle c_pindot="true" class="pindot" cx="500" cy="335" r="2" fill="#4F4F4F" stroke="none" /><path d="M 500 335 h -20" fill="none" stroke="#880000" stroke-width="1"/><text x="473" y="338" font-family="Verdana" font-size="7pt" fill="#0000FF" text-anchor="end"   >B</text><text x="485" y="334" font-family="Verdana" font-size="7pt" fill="#0000FF" text-anchor="start"   >4</text><circle cx="483" cy="335" r="3" stroke="#880000" fill="none" stroke-width="1" display="none" /><path d="M 480 332 L 477 335 L 480 338" fill="none" stroke="#880000" stroke-width="1"  display="none" /></g><g c_partid="part_pin" c_etype="pinpart"  c_show="show"  c_elec="0" c_spicepin="5" c_origin="505,320" id="gge11323" c_rotation="0"><circle c_pindot="true" class="pindot" cx="505" cy="320" r="2" fill="#4F4F4F" stroke="none" /><path d="M 505 320 h -20" fill="none" stroke="#880000" stroke-width="1"/><text x="483" y="323" font-family="Verdana" font-size="7pt" fill="#0000FF" text-anchor="end"   >H-</text><text x="490" y="319" font-family="Verdana" font-size="7pt" fill="#0000FF" text-anchor="start"   >5</text><circle cx="488" cy="320" r="3" stroke="#880000" fill="none" stroke-width="1" display="none" /><path d="M 485 317 L 482 320 L 485 323" fill="none" stroke="#880000" stroke-width="1"  display="none" /></g><g c_partid="part_pin" c_etype="pinpart"  c_show="show"  c_elec="0" c_spicepin="6" c_origin="500,305" id="gge11330" c_rotation="0"><circle c_pindot="true" class="pindot" cx="500" cy="305" r="2" fill="#4F4F4F" stroke="none" /><path d="M 500 305 h -20" fill="none" stroke="#880000" stroke-width="1"/><text x="473" y="308" font-family="Verdana" font-size="7pt" fill="#0000FF" text-anchor="end"   >B</text><text x="485" y="304" font-family="Verdana" font-size="7pt" fill="#0000FF" text-anchor="start"   >6</text><circle cx="483" cy="305" r="3" stroke="#880000" fill="none" stroke-width="1" display="none" /><path d="M 480 302 L 477 305 L 480 308" fill="none" stroke="#880000" stroke-width="1"  display="none" /></g></g><g c_partid="part_netLabel_VCC" c_etype="pinpart" c_origin="185,300" id="gge11387" c_shapetype="group" c_rotation="0"><circle c_pindot="true" class="pindot" cx="185" cy="300" r="2" fill="#4F4F4F" stroke="none" /><text x="173" y="288" font-family="Times New Roman" font-size="9pt" fill="#000000" text-anchor="start"  >datapin33</text><polyline points="185 290 185 300" stroke="#000000" id="gge11390" stroke-width="1"   fill="none" stroke-linecap="round" /><polyline points="180 290 190 290" stroke="#000000" id="gge11391" stroke-width="1"   fill="none" stroke-linecap="round" /></g><g c_partid="part_netLabel_VCC" c_etype="pinpart" c_origin="580,295" id="gge11392" c_shapetype="group" c_rotation="0"><circle c_pindot="true" class="pindot" cx="580" cy="295" r="2" fill="#4F4F4F" stroke="none" /><text x="568" y="283" font-family="Times New Roman" font-size="9pt" fill="#000000" text-anchor="start"  >datapin32</text><polyline points="580 285 580 295" stroke="#000000" id="gge11395" stroke-width="1"   fill="none" stroke-linecap="round" /><polyline points="575 285 585 285" stroke="#000000" id="gge11396" stroke-width="1"   fill="none" stroke-linecap="round" /></g><polyline c_etype="wire" c_shapetype="line" points="125 230 125 365 110 365 110 550 505 550 505 320" stroke="#008800" id="gge11419" stroke-width="1"   fill="none" stroke-linecap="round" /><g c_origin="145,180" c_para="package`DUST SENSOR`Contributor`andyfierman`timeStamp`1473114333`BOM_Manufacturer Part`?`spicePre`U`" c_partid="part_import_gge11661" id="gge11661" c_shapetype="group" c_etype="pinpart" c_rotation="270"><g c_partid="part_annotation" id="gge11663" ><text c_note="note_name" x="128.90625" y="112" fill="#000080" font-family="Arial" font-size="7pt" font-weight="" font-style="" dominant-baseline="" text-anchor="start"  >GP2Y1010AU0F</text></g><g c_partid="part_annotation" id="gge11665" ><text c_note="note_pre" x="128.90625" y="103.1875" fill="#000080" font-family="Arial" font-size="7pt" font-weight="" font-style="" dominant-baseline="" text-anchor="start"  >U2</text></g><polyline points="175 150 175 140 165 140 165 145 155 140 165 135 165 140 165 140" stroke="#8D2323" id="gge11667" stroke-width="1"   fill="none" stroke-linecap="round" /><rect id="gge11668" x="60" y="115"   width="150" height="100" stroke="#8D2323" stroke-width="1" fill="none"   /><polyline points="155 140 145 140 145 150 145 150" stroke="#8D2323" id="gge11669" stroke-width="1"   fill="none" stroke-linecap="round" /><polyline points="157 134 151 128 153 128 151 128 151 130 153 128 153 128" stroke="#8D2323" id="gge11670" stroke-width="1"   fill="none" stroke-linecap="round" /><g c_partid="part_pin" c_etype="pinpart"  c_show="show"  c_elec="1" c_spicepin="3" c_origin="185,230" id="gge11671" c_rotation="270"><circle c_pindot="true" class="pindot" cx="185" cy="230" r="2" fill="#4F4F4F" stroke="none" /><path d="M 185 230 v -15" fill="none" stroke="#8D2323" stroke-width="1"/><text x="188" y="212" font-family="Verdana" font-size="7pt" fill="#8D2323" text-anchor="start" display="none" transform="rotate(270,188,212)" >LED</text><text x="184" y="220" font-family="Verdana" font-size="7pt" fill="#8D2323" text-anchor="end" display="none" transform="rotate(270,184,220)" >2</text><circle cx="185" cy="218" r="3" stroke="#8D2323" fill="none" stroke-width="1" display="none" /><path d="M 188 215 L 185 212 L 182 215" fill="none" stroke="#8D2323" stroke-width="1"  display="none" /></g><g c_partid="part_pin" c_etype="pinpart"  c_show="show"  c_elec="1" c_spicepin="1" c_origin="205,230" id="gge11678" c_rotation="270"><circle c_pindot="true" class="pindot" cx="205" cy="230" r="2" fill="#4F4F4F" stroke="none" /><path d="M 205 230 v -15" fill="none" stroke="#8D2323" stroke-width="1"/><text x="211" y="213" font-family="Verdana" font-size="7pt" fill="#8D2323" text-anchor="start" display="none" transform="rotate(270,211,213)" >VLED</text><text x="204" y="220" font-family="Verdana" font-size="7pt" fill="#8D2323" text-anchor="end" display="none" transform="rotate(270,204,220)" >1</text><circle cx="205" cy="218" r="3" stroke="#8D2323" fill="none" stroke-width="1" display="none" /><path d="M 208 215 L 205 212 L 202 215" fill="none" stroke="#8D2323" stroke-width="1"  display="none" /></g><polyline points="155 135 155 145" stroke="#8D2323" id="gge11685" stroke-width="1"   fill="none" stroke-linecap="round" /><polyline points="100 150 100 140 110 140 110 145 120 140 110 135 110 140 110 140" stroke="#8D2323" id="gge11686" stroke-width="1"   fill="none" stroke-linecap="round" /><polyline points="120 140 130 140 130 150 130 150" stroke="#8D2323" id="gge11687" stroke-width="1"   fill="none" stroke-linecap="round" /><polyline points="120 124 114 130 116 130 114 130 114 128 116 130 116 130" stroke="#8D2323" id="gge11688" stroke-width="1"   fill="none" stroke-linecap="round" /><g c_partid="part_pin" c_etype="pinpart"  c_show="show"  c_elec="1" c_spicepin="5" c_origin="125,230" id="gge11689" c_rotation="270"><circle c_pindot="true" class="pindot" cx="125" cy="230" r="2" fill="#4F4F4F" stroke="none" /><path d="M 125 230 v -15" fill="none" stroke="#8D2323" stroke-width="1"/><text x="128" y="212" font-family="Verdana" font-size="7pt" fill="#8D2323" text-anchor="start" display="none" transform="rotate(270,128,212)" >VO</text><text x="124" y="220" font-family="Verdana" font-size="7pt" fill="#8D2323" text-anchor="end" display="none" transform="rotate(270,124,220)" >5</text><circle cx="125" cy="218" r="3" stroke="#8D2323" fill="none" stroke-width="1" display="none" /><path d="M 128 215 L 125 212 L 122 215" fill="none" stroke="#8D2323" stroke-width="1"  display="none" /></g><g c_partid="part_pin" c_etype="pinpart"  c_show="show"  c_elec="1" c_spicepin="4" c_origin="105,230" id="gge11696" c_rotation="270"><circle c_pindot="true" class="pindot" cx="105" cy="230" r="2" fill="#4F4F4F" stroke="none" /><path d="M 105 230 v -15" fill="none" stroke="#8D2323" stroke-width="1"/><text x="111" y="213" font-family="Verdana" font-size="7pt" fill="#8D2323" text-anchor="start" display="none" transform="rotate(270,111,213)" >SGND</text><text x="104" y="220" font-family="Verdana" font-size="7pt" fill="#8D2323" text-anchor="end" display="none" transform="rotate(270,104,220)" >6</text><circle cx="105" cy="218" r="3" stroke="#8D2323" fill="none" stroke-width="1" display="none" /><path d="M 108 215 L 105 212 L 102 215" fill="none" stroke="#8D2323" stroke-width="1"  display="none" /></g><polyline points="120 145 120 135" stroke="#8D2323" id="gge11703" stroke-width="1"   fill="none" stroke-linecap="round" /><g c_partid="part_pin" c_etype="pinpart"  c_show="show"  c_elec="1" c_spicepin="6" c_origin="145,230" id="gge11704" c_rotation="270"><circle c_pindot="true" class="pindot" cx="145" cy="230" r="2" fill="#4F4F4F" stroke="none" /><path d="M 145 230 v -15" fill="none" stroke="#8D2323" stroke-width="1"/><text x="148" y="212" font-family="Verdana" font-size="7pt" fill="#8D2323" text-anchor="start" display="none" transform="rotate(270,148,212)" >VCC</text><text x="144" y="220" font-family="Verdana" font-size="7pt" fill="#8D2323" text-anchor="end" display="none" transform="rotate(270,144,220)" >4</text><circle cx="145" cy="218" r="3" stroke="#8D2323" fill="none" stroke-width="1" display="none" /><path d="M 148 215 L 145 212 L 142 215" fill="none" stroke="#8D2323" stroke-width="1"  display="none" /></g><g c_partid="part_pin" c_etype="pinpart"  c_show="show"  c_elec="1" c_spicepin="2" c_origin="165,230" id="gge11711" c_rotation="270"><circle c_pindot="true" class="pindot" cx="165" cy="230" r="2" fill="#4F4F4F" stroke="none" /><path d="M 165 230 v -15" fill="none" stroke="#8D2323" stroke-width="1"/><text x="171" y="213" font-family="Verdana" font-size="7pt" fill="#8D2323" text-anchor="start" display="none" transform="rotate(270,171,213)" >LEDGND</text><text x="164" y="220" font-family="Verdana" font-size="7pt" fill="#8D2323" text-anchor="end" display="none" transform="rotate(270,164,220)" >3</text><circle cx="165" cy="218" r="3" stroke="#8D2323" fill="none" stroke-width="1" display="none" /><path d="M 168 215 L 165 212 L 162 215" fill="none" stroke="#8D2323" stroke-width="1"  display="none" /></g><polyline points="160 131 154 125 156 125 154 125 154 127 156 125 156 125" stroke="#8D2323" id="gge11718" stroke-width="1"   fill="none" stroke-linecap="round" /><polyline points="123 127 117 133 119 133 117 133 117 131 119 133 119 133" stroke="#8D2323" id="gge11719" stroke-width="1"   fill="none" stroke-linecap="round" /><rect id="gge11720" x="95" y="150"   width="40" height="40" stroke="#8D2323" stroke-width="1" fill="none"   /><rect id="gge11721" x="80" y="158"   width="10" height="4" stroke="#8D2323" stroke-width="1" fill="none"   /><polyline points="90 160 95 160" stroke="#8D2323" id="gge11722" stroke-width="1"   fill="none" stroke-linecap="round" /><polyline points="70 160 80 160" stroke="#8D2323" id="gge11723" stroke-width="1"   fill="none" stroke-linecap="round" /><polyline points="68 157 70 158" stroke="#8D2323" id="gge11724" stroke-width="1"   fill="none" stroke-linecap="round" /><polyline points="70 163 70 157" stroke="#8D2323" id="gge11725" stroke-width="1"   fill="none" stroke-linecap="round" /><polyline points="68 159 70 160" stroke="#8D2323" id="gge11726" stroke-width="1"   fill="none" stroke-linecap="round" /><polyline points="68 161 70 162" stroke="#8D2323" id="gge11727" stroke-width="1"   fill="none" stroke-linecap="round" /><polyline points="75 160 75 200 105 200 105 215" stroke="#8D2323" id="gge11728" stroke-width="1"   fill="none" stroke-linecap="round" /><g c_partid="part_annotation" id="gge11729" c_origin="89.13,177.69" c_shapetype="group" c_etype="pinpart"><text x="89.13" y="177.69" fill="#0000FF" font-family="Verdana" font-size="9pt" font-weight="" font-style="" dominant-baseline="" text-anchor="start" type="comment" transform="rotate(270,89.13,177.69)" >Rs</text></g><rect id="gge11731" x="143" y="150"   width="4" height="10" stroke="#8D2323" stroke-width="1" fill="none"   /><polyline points="145 160 145 170 165 170 165 215" stroke="#8D2323" id="gge11732" stroke-width="1"   fill="none" stroke-linecap="round" /><rect id="gge11733" x="183" y="190"   width="4" height="10" stroke="#8D2323" stroke-width="1" fill="none"   /><polyline points="185 200 185 215" stroke="#8D2323" id="gge11734" stroke-width="1"   fill="none" stroke-linecap="round" /><polyline points="135 180 145 180 145 215" stroke="#8D2323" id="gge11735" stroke-width="1"   fill="none" stroke-linecap="round" /><polyline points="195 150 190 155" stroke="#8D2323" id="gge11736" stroke-width="1"   fill="none" stroke-linecap="round" /><polyline points="175 150 180 155" stroke="#8D2323" id="gge11737" stroke-width="1"   fill="none" stroke-linecap="round" /><polyline points="175 155 195 155" stroke="#8D2323" id="gge11738" stroke-width="1"   fill="none" stroke-linecap="round" /><polyline points="185 155 185 190" stroke="#8D2323" id="gge11739" stroke-width="1"   fill="none" stroke-linecap="round" /><polyline points="192 153 194 153 192 151 192 153" stroke="#8D2323" id="gge11740" stroke-width="1"   fill="none" stroke-linecap="round" /><rect id="gge11741" x="190" y="168"   width="10" height="4" stroke="#8D2323" stroke-width="1" fill="none"   /><polyline points="200 170 205 170" stroke="#8D2323" id="gge11742" stroke-width="1"   fill="none" stroke-linecap="round" /><polyline points="185 170 190 170" stroke="#8D2323" id="gge11743" stroke-width="1"   fill="none" stroke-linecap="round" /><polyline points="195 150 205 150 205 215" stroke="#8D2323" id="gge11744" stroke-width="1"   fill="none" stroke-linecap="round" /><polyline points="125 190 125 215" stroke="#8D2323" id="gge11745" stroke-width="1"   fill="none" stroke-linecap="round" /><polyline points="85 200 85 215" stroke="#8D2323" id="gge11746" stroke-width="1"   fill="none" stroke-linecap="round" /><ellipse cx="185" cy="170" rx="1" ry="1" id="gge11747" stroke="#8D2323" stroke-width="1" fill="none"   /><ellipse cx="205" cy="170" rx="1" ry="1" id="gge11748" stroke="#8D2323" stroke-width="1" fill="none"   /><ellipse cx="85" cy="200" rx="1" ry="1" id="gge11749" stroke="#8D2323" stroke-width="1" fill="none"   /><ellipse cx="85" cy="215" rx="1" ry="1" id="gge11750" stroke="#8D2323" stroke-width="1" fill="none"   /><ellipse cx="131" cy="124" rx="1" ry="1" id="gge11751" stroke="#8D2323" stroke-width="1" fill="none"   /><ellipse cx="131" cy="134" rx="1" ry="1" id="gge11752" stroke="#8D2323" stroke-width="1" fill="none"   /><ellipse cx="131" cy="129" rx="1" ry="1" id="gge11753" stroke="#8D2323" stroke-width="1" fill="none"   /><ellipse cx="136" cy="124" rx="1" ry="1" id="gge11754" stroke="#8D2323" stroke-width="1" fill="none"   /><ellipse cx="136" cy="134" rx="1" ry="1" id="gge11755" stroke="#8D2323" stroke-width="1" fill="none"   /><ellipse cx="136" cy="129" rx="1" ry="1" id="gge11756" stroke="#8D2323" stroke-width="1" fill="none"   /><ellipse cx="141" cy="124" rx="1" ry="1" id="gge11757" stroke="#8D2323" stroke-width="1" fill="none"   /><ellipse cx="141" cy="134" rx="1" ry="1" id="gge11758" stroke="#8D2323" stroke-width="1" fill="none"   /><ellipse cx="141" cy="129" rx="1" ry="1" id="gge11759" stroke="#8D2323" stroke-width="1" fill="none"   /><path d="M 135 122.5 A 5 5 0 0 1 145 122.5" id="gge11760"   stroke="#999999" stroke-width="1" c_helper_type="arc1" fill="none" /><path d="M 135 128 A 5 5 0 0 1 145 128" id="gge11761"   stroke="#999999" stroke-width="1" c_helper_type="arc1" fill="none" /><path d="M 135 134 A 5 5 0 0 1 145 134" id="gge11762"   stroke="#999999" stroke-width="1" c_helper_type="arc1" fill="none" /><path d="M 125 133 A 5 5 0 0 0 135 133" id="gge11763"   stroke="#666666" stroke-width="1" c_helper_type="arc1" fill="none" /><path d="M 125 128 A 5 5 0 0 0 135 128" id="gge11764"   stroke="#666666" stroke-width="1" c_helper_type="arc1" fill="none" /><path d="M 125 122.5 A 5 5 0 0 0 135 122.5" id="gge11765"   stroke="#666666" stroke-width="1" c_helper_type="arc1" fill="none" /><g c_partid="part_annotation" id="gge11766" c_origin="114.14,188.44" c_shapetype="group" c_etype="pinpart"><text x="114.14" y="188.44" fill="#0000FF" font-family="Verdana" font-size="5.5pt" font-weight="" font-style="" dominant-baseline="" text-anchor="start" type="comment" transform="rotate(270,114.14,188.44)" ><tspan xml:space="preserve" xmlns:xml="http://www.w3.org/XML/1998/namespace">Amplifier </tspan><tspan x="114.14" dy="1em" xml:space="preserve" xmlns:xml="http://www.w3.org/XML/1998/namespace">Circuit</tspan></text></g><ellipse cx="75" cy="160" rx="1" ry="1" id="gge11770" stroke="#8D2323" stroke-width="1" fill="none"   /><g c_partid="part_annotation" id="gge11771" c_origin="98.13,142.47" c_shapetype="group" c_etype="pinpart"><text x="98.13" y="142.47" fill="#0000FF" font-family="Verdana" font-size="9pt" font-weight="" font-style="" dominant-baseline="" text-anchor="start" type="comment" transform="rotate(270,98.13,142.47)" >PD</text></g><g c_partid="part_annotation" id="gge11773" c_origin="187.12,150.2" c_shapetype="group" c_etype="pinpart"><text x="187.12" y="150.2" fill="#0000FF" font-family="Verdana" font-size="9pt" font-weight="" font-style="" dominant-baseline="" text-anchor="start" type="comment" transform="rotate(270,187.12,150.2)" >IRED</text></g></g><g c_partid="part_netLabel_VCC" c_etype="pinpart" c_origin="135,325" id="gge11890" c_shapetype="group" c_rotation="0"><circle c_pindot="true" class="pindot" cx="135" cy="325" r="2" fill="#4F4F4F" stroke="none" /><text x="123" y="313" font-family="Times New Roman" font-size="9pt" fill="#000000" text-anchor="start"  >LEDPIN IO2</text><polyline points="135 315 135 325" stroke="#000000" id="gge11893" stroke-width="1"   fill="none" stroke-linecap="round" /><polyline points="130 315 140 315" stroke="#000000" id="gge11894" stroke-width="1"   fill="none" stroke-linecap="round" /></g><g c_origin="225,400" c_para="package`AXIAL-0.3`nameAlias`Value(&#x3a9;)`BOM_Manufacturer Part`?`spicePre`R`spiceSymbolName`Res_AXIAL-0.3(1/8W)_US`" c_partid="part_import_gge11900" id="gge11900" c_shapetype="group" c_etype="pinpart" c_rotation="270"><g c_partid="part_annotation" id="gge11902" ><text c_note="note_name" x="232" y="412.5625" fill="#000080" font-family="Arial" font-size="7pt" font-weight="" font-style="" dominant-baseline="" text-anchor="start"  >150</text></g><g c_partid="part_annotation" id="gge11904" ><text c_note="note_pre" x="232" y="403.34375" fill="#000080" font-family="Arial" font-size="7pt" font-weight="" font-style="" dominant-baseline="" text-anchor="start"  >R1</text></g><polyline points="225 415 220 412" stroke="#A00000" id="gge11906" stroke-width="1"   fill="none" stroke-linecap="round" /><polyline points="230 407 220 402" stroke="#A00000" id="gge11907" stroke-width="1"   fill="none" stroke-linecap="round" /><polyline points="220 412 230 407" stroke="#A00000" id="gge11908" stroke-width="1"   fill="none" stroke-linecap="round" /><g c_partid="part_pin" c_etype="pinpart"  c_show="show"  c_elec="0" c_spicepin="2" c_origin="225,420" id="gge11909" c_rotation="270"><circle c_pindot="true" class="pindot" cx="225" cy="420" r="2" fill="#4F4F4F" stroke="none" /><path d="M 225 420 v -5" fill="none" stroke="#800" stroke-width="1"/><text x="225" y="411" font-family="Verdana" font-size="7pt" fill="#800" text-anchor="start" display="none" transform="rotate(270,225,411)" >2</text><text x="221" y="419" font-family="Verdana" font-size="7pt" fill="#800" text-anchor="end" display="none" transform="rotate(270,221,419)" >2</text><circle cx="225" cy="418" r="3" stroke="#800" fill="none" stroke-width="1" display="none" /><path d="M 228 415 L 225 412 L 222 415" fill="none" stroke="#800" stroke-width="1"  display="none" /></g><polyline points="220 393 230 388" stroke="#A00000" id="gge11916" stroke-width="1"   fill="none" stroke-linecap="round" /><polyline points="220 402 230 398" stroke="#A00000" id="gge11917" stroke-width="1"   fill="none" stroke-linecap="round" /><polyline points="230 398 220 393" stroke="#A00000" id="gge11918" stroke-width="1"   fill="none" stroke-linecap="round" /><polyline points="230 388 225 385" stroke="#A00000" id="gge11919" stroke-width="1"   fill="none" stroke-linecap="round" /><g c_partid="part_pin" c_etype="pinpart"  c_show="show"  c_elec="0" c_spicepin="1" c_origin="225,380" id="gge11920" c_rotation="90"><circle c_pindot="true" class="pindot" cx="225" cy="380" r="2" fill="#4F4F4F" stroke="none" /><path d="M 225 380 v 5" fill="none" stroke="#800" stroke-width="1"/><text x="225" y="389" font-family="Verdana" font-size="7pt" fill="#800" text-anchor="end" display="none" transform="rotate(270,225,389)" >1</text><text x="221" y="381" font-family="Verdana" font-size="7pt" fill="#800" text-anchor="start" display="none" transform="rotate(270,221,381)" >1</text><circle cx="225" cy="382" r="3" stroke="#800" fill="none" stroke-width="1" display="none" /><path d="M 222 385 L 225 388 L 228 385" fill="none" stroke="#800" stroke-width="1"  display="none" /></g></g><g c_origin="130,410" c_para="package`CAP-D3.0XF1.5`nameAlias`Value(F)`Contributor`EasyEDA`BOM_Manufacturer Part`?`spicePre`C`spiceSymbolName`Cap_Electrolytic(TH)_D3.0XF1.5_EU`" c_partid="part_import_gge11955" id="gge11955" c_shapetype="group" c_etype="pinpart" c_rotation="270"><g c_partid="part_annotation" id="gge11957" ><text c_note="note_name" x="124.046875" y="399.796875" fill="#000080" font-family="Arial" font-size="7pt" font-weight="" font-style="" dominant-baseline="" text-anchor="start"  >220uf 16v</text></g><g c_partid="part_annotation" id="gge11959" ><text c_note="note_pre" x="124.06" y="390.58" fill="#000080" font-family="Arial" font-size="7pt" font-weight="" font-style="" dominant-baseline="" text-anchor="start"  >C1</text></g><polyline points="140 410 134 410" stroke="#8D2323" id="gge11961" stroke-width="1"   fill="none" stroke-linecap="round" /><polyline points="120 410 127 410" stroke="#8D2323" id="gge11962" stroke-width="1"   fill="none" stroke-linecap="round" /><rect id="gge11963" x="127.2" y="402.8"   width="1.8" height="14.7" stroke="#8D2323" stroke-width="1" fill="#8d2323"   /><rect id="gge11964" x="132.2" y="402.8"   width="1.8" height="14.7" stroke="#8D2323" stroke-width="1" fill="none"   /><g c_partid="part_pin" c_etype="pinpart"  c_show="show"  c_elec="0" c_spicepin="1" c_origin="150,410" id="gge11965" c_rotation="180"><circle c_pindot="true" class="pindot" cx="150" cy="410" r="2" fill="#4F4F4F" stroke="none" /><path d="M 150 410 h -10" fill="none" stroke="#8D2323" stroke-width="1"/><text x="137" y="413" font-family="Verdana" font-size="7pt" fill="#8D2323" text-anchor="end" display="none"  >1</text><text x="146" y="409" font-family="Verdana" font-size="7pt" fill="#8D2323" text-anchor="start" display="none"  >1</text><circle cx="137" cy="410" r="3" stroke="#8D2323" fill="none" stroke-width="1" display="none" /><path d="M 140 413 L 143 410 L 140 407" fill="none" stroke="#8D2323" stroke-width="1"  display="none" /></g><g c_partid="part_pin" c_etype="pinpart"  c_show="show"  c_elec="0" c_spicepin="2" c_origin="110,410" id="gge11972" c_rotation="0"><circle c_pindot="true" class="pindot" cx="110" cy="410" r="2" fill="#4F4F4F" stroke="none" /><path d="M 110 410 h 10" fill="none" stroke="#8D2323" stroke-width="1"/><text x="123" y="413" font-family="Verdana" font-size="7pt" fill="#8D2323" text-anchor="start" display="none"  >2</text><text x="114" y="409" font-family="Verdana" font-size="7pt" fill="#8D2323" text-anchor="end" display="none"  >2</text><circle cx="123" cy="410" r="3" stroke="#8D2323" fill="none" stroke-width="1" display="none" /><path d="M 120 407 L 117 410 L 120 413" fill="none" stroke="#8D2323" stroke-width="1"  display="none" /></g><rect id="gge11979" x="137.9" y="403"   width="0.1" height="4" stroke="#8D2323" stroke-width="1" fill="#8d2323"   /><rect id="gge11980" x="136" y="405"   width="4" height="0.1" stroke="#8D2323" stroke-width="1" fill="#8d2323"   /></g><polyline c_etype="wire" c_shapetype="line" points="225 455 225 420" stroke="#008800" id="gge12010" stroke-width="1"   fill="none" stroke-linecap="round" /><polyline c_etype="wire" c_shapetype="line" points="105 230 105 425 165 425 165 410 150 410 150 380 225 380 225 230 205 230" stroke="#008800" id="gge12011" stroke-width="1"   fill="none" stroke-linecap="round" /><polyline c_etype="wire" c_shapetype="line" points="185 230 185 300" stroke="#008800" id="gge12021" stroke-width="1"   fill="none" stroke-linecap="round" /><g c_partid="part_netLabel_gnD" c_etype="pinpart" c_origin="165,255" id="gge12029" c_shapetype="group" c_rotation="0"><circle c_pindot="true" class="pindot" cx="165" cy="255" r="2" fill="#4F4F4F" stroke="none" /><text x="152" y="281" font-family="Times New Roman" font-size="9pt" fill="#000000" text-anchor="start"  display="none">GND</text><polyline points="165 265 165 255" stroke="#000000" id="gge12032" stroke-width="1"   fill="none" stroke-linecap="round" /><polyline points="156 265 174 265" stroke="#000000" id="gge12033" stroke-width="1"   fill="none" stroke-linecap="round" /><polyline points="159 267 171 267" stroke="#000000" id="gge12034" stroke-width="1"   fill="none" stroke-linecap="round" /><polyline points="162 269 168 269" stroke="#000000" id="gge12035" stroke-width="1"   fill="none" stroke-linecap="round" /><polyline points="164 271 166 271" stroke="#000000" id="gge12036" stroke-width="1"   fill="none" stroke-linecap="round" /></g><polyline c_etype="wire" c_shapetype="line" points="165 230 165 255" stroke="#008800" id="gge12047" stroke-width="1"   fill="none" stroke-linecap="round" /><polyline c_etype="wire" c_shapetype="line" points="145 230 145 325 135 325" stroke="#008800" id="gge12048" stroke-width="1"   fill="none" stroke-linecap="round" /><g c_origin="545,320" c_para="package`AXIAL-0.3`nameAlias`Value(&#x3a9;)`BOM_Manufacturer Part`?`spicePre`R`spiceSymbolName`Res_AXIAL-0.3(1/8W)_US`" c_partid="part_import_gge12089" id="gge12089" c_shapetype="group" c_etype="pinpart" c_rotation="90"><g c_partid="part_annotation" id="gge12091" ><text c_note="note_name" x="552" y="332" fill="#000080" font-family="Arial" font-size="7pt" font-weight="" font-style="" dominant-baseline="" text-anchor="start"  >1k</text></g><g c_partid="part_annotation" id="gge12093" ><text c_note="note_pre" x="552.0078125" y="323" fill="#000080" font-family="Arial" font-size="7pt" font-weight="" font-style="" dominant-baseline="" text-anchor="start"  >R2</text></g><polyline points="545 305 550 308" stroke="#A00000" id="gge12095" stroke-width="1"   fill="none" stroke-linecap="round" /><polyline points="540 313 550 318" stroke="#A00000" id="gge12096" stroke-width="1"   fill="none" stroke-linecap="round" /><polyline points="550 308 540 313" stroke="#A00000" id="gge12097" stroke-width="1"   fill="none" stroke-linecap="round" /><g c_partid="part_pin" c_etype="pinpart"  c_show="show"  c_elec="0" c_spicepin="2" c_origin="545,300" id="gge12098" c_rotation="90"><circle c_pindot="true" class="pindot" cx="545" cy="300" r="2" fill="#4F4F4F" stroke="none" /><path d="M 545 300 v 5" fill="none" stroke="#800" stroke-width="1"/><text x="545" y="309" font-family="Verdana" font-size="7pt" fill="#800" text-anchor="end" display="none" transform="rotate(270,545,309)" >2</text><text x="541" y="301" font-family="Verdana" font-size="7pt" fill="#800" text-anchor="start" display="none" transform="rotate(270,541,301)" >2</text><circle cx="545" cy="302" r="3" stroke="#800" fill="none" stroke-width="1" display="none" /><path d="M 542 305 L 545 308 L 548 305" fill="none" stroke="#800" stroke-width="1"  display="none" /></g><polyline points="550 327 540 332" stroke="#A00000" id="gge12105" stroke-width="1"   fill="none" stroke-linecap="round" /><polyline points="550 318 540 322" stroke="#A00000" id="gge12106" stroke-width="1"   fill="none" stroke-linecap="round" /><polyline points="540 322 550 327" stroke="#A00000" id="gge12107" stroke-width="1"   fill="none" stroke-linecap="round" /><polyline points="540 332 545 335" stroke="#A00000" id="gge12108" stroke-width="1"   fill="none" stroke-linecap="round" /><g c_partid="part_pin" c_etype="pinpart"  c_show="show"  c_elec="0" c_spicepin="1" c_origin="545,340" id="gge12109" c_rotation="270"><circle c_pindot="true" class="pindot" cx="545" cy="340" r="2" fill="#4F4F4F" stroke="none" /><path d="M 545 340 v -5" fill="none" stroke="#800" stroke-width="1"/><text x="545" y="331" font-family="Verdana" font-size="7pt" fill="#800" text-anchor="start" display="none" transform="rotate(270,545,331)" >1</text><text x="541" y="339" font-family="Verdana" font-size="7pt" fill="#800" text-anchor="end" display="none" transform="rotate(270,541,339)" >1</text><circle cx="545" cy="338" r="3" stroke="#800" fill="none" stroke-width="1" display="none" /><path d="M 548 335 L 545 332 L 542 335" fill="none" stroke="#800" stroke-width="1"  display="none" /></g></g><polyline c_etype="wire" c_shapetype="line" points="500 335 500 305 545 305 545 300" stroke="#008800" id="gge12144" stroke-width="1"   fill="none" stroke-linecap="round" /><polyline c_etype="wire" c_shapetype="line" points="415 320 415 250 635 250 635 350 545 350 545 340" stroke="#008800" id="gge12147" stroke-width="1"   fill="none" stroke-linecap="round" /><polyline c_etype="wire" c_shapetype="line" points="580 295 580 305 545 305" stroke="#008800" id="gge12148" stroke-width="1"   fill="none" stroke-linecap="round" /><polyline c_etype="wire" c_shapetype="line" points="420 305 420 335 425 335 425 420 375 420" stroke="#008800" id="gge12157" stroke-width="1"   fill="none" stroke-linecap="round" /><g c_partid="part_junction" c_etype="pinpart" c_origin="420,335" id="gge12158" c_shapetype="group"><circle c_pindot="true" class="pindot" cx="420" cy="335" r="2" fill="#4F4F4F" stroke="none"/><circle cx="420" cy="335" r="2.5" fill="#CC0000" stroke-width="1"/></g><g c_partid="part_junction" c_etype="pinpart" c_origin="150,410" id="gge12065" c_shapetype="group"><circle c_pindot="true" class="pindot" cx="150" cy="410" r="2" fill="#4F4F4F" stroke="none"/><circle cx="150" cy="410" r="2.5" fill="#CC0000" stroke-width="1"/></g><g c_partid="part_junction" c_etype="pinpart" c_origin="110,410" id="gge12059" c_shapetype="group"><circle c_pindot="true" class="pindot" cx="110" cy="410" r="2" fill="#4F4F4F" stroke="none"/><circle cx="110" cy="410" r="2.5" fill="#CC0000" stroke-width="1"/></g><g c_partid="part_junction" c_etype="pinpart" c_origin="545,305" id="gge12149" c_shapetype="group"><circle c_pindot="true" class="pindot" cx="545" cy="305" r="2" fill="#4F4F4F" stroke="none"/><circle cx="545" cy="305" r="2.5" fill="#CC0000" stroke-width="1"/></g><g c_partid="part_junction" c_etype="pinpart" c_origin="225,380" id="gge12022" c_shapetype="group"><circle c_pindot="true" class="pindot" cx="225" cy="380" r="2" fill="#4F4F4F" stroke="none"/><circle cx="225" cy="380" r="2.5" fill="#CC0000" stroke-width="1"/></g><g c_partid="part_junction" c_etype="pinpart" c_origin="500,305" id="gge12146" c_shapetype="group"><circle c_pindot="true" class="pindot" cx="500" cy="305" r="2" fill="#4F4F4F" stroke="none"/><circle cx="500" cy="305" r="2.5" fill="#CC0000" stroke-width="1"/></g></g></svg>